<svg xmlns="http://www.w3.org/2000/svg" xmlns:xlink="http://www.w3.org/1999/xlink" width="27" height="25" viewBox="0 0 27 25">
  <defs>
    <style>
      .cls-1 {
        fill: #fff;
        fill-rule: evenodd;
        opacity: 0.7;
        filter: url(#filter);
      }
    </style>
    <filter id="filter" x="620" y="208" width="27" height="25" filterUnits="userSpaceOnUse">
      <feFlood result="flood" flood-color="#ccc"/>
      <feComposite result="composite" operator="in" in2="SourceGraphic"/>
      <feBlend result="blend" in2="SourceGraphic"/>
    </filter>
  </defs>
  <path id="heart" class="cls-1" d="M647,215.793A7.555,7.555,0,0,0,639.709,208a7.2,7.2,0,0,0-6.209,3.723A7.2,7.2,0,0,0,627.29,208a7.554,7.554,0,0,0-7.29,7.793,8,8,0,0,0,2.5,5.868l10.331,11.044a0.9,0.9,0,0,0,1.331,0L644.5,221.661A8,8,0,0,0,647,215.793Z" transform="translate(-620 -208)"/>
</svg>
